<svg width="198" height="62" viewBox="0 0 198 62" fill="none" xmlns="http://www.w3.org/2000/svg">
<path d="M5.82926 52.394C4.09326 52.394 2.60526 52.1667 1.36526 51.712C0.869258 51.5467 0.786591 51.2573 1.11726 50.844C1.28259 50.6787 1.48926 50.534 1.73726 50.41C1.98526 50.3273 2.25392 50.348 2.54326 50.472C3.53526 50.8853 4.83726 51.092 6.44926 51.092C10.3759 51.092 14.9639 49.79 20.2133 47.186C23.6853 45.45 26.9506 43.3213 30.0093 40.8C33.1093 38.2787 35.7546 35.5093 37.9453 32.492C40.1359 29.4747 41.6239 26.3953 42.4093 23.254C42.6573 22.262 42.7813 21.3733 42.7813 20.588C42.7813 18.1493 41.7893 16.3513 39.8053 15.194C37.8626 13.9953 35.1553 13.396 31.6833 13.396C31.3939 13.396 31.0219 13.4167 30.5673 13.458C30.1539 13.458 29.6373 13.4787 29.0173 13.52C27.8186 13.6027 26.5579 13.7887 25.2353 14.078C23.9539 14.326 22.6313 14.6567 21.2673 15.07C18.5393 15.8967 16.1213 17.0333 14.0133 18.48C11.9053 19.8853 10.5619 21.4973 9.98326 23.316C9.85926 23.688 9.79726 23.998 9.79726 24.246C9.79726 24.7007 9.94192 25.052 10.2313 25.3C10.5206 25.548 10.9546 25.796 11.5333 26.044C11.7813 26.168 11.9053 26.3333 11.9053 26.54C11.9053 26.788 11.8226 26.9947 11.6573 27.16C11.1613 27.7387 10.6239 27.904 10.0453 27.656C9.92126 27.6147 9.59059 27.4907 9.05326 27.284C8.51592 27.036 8.10259 26.7467 7.81326 26.416C7.44126 25.9613 7.25526 25.4653 7.25526 24.928C7.25526 24.68 7.35859 24.184 7.56526 23.44C8.26792 21.2907 9.85926 19.3687 12.3393 17.674C13.9926 16.5167 15.8113 15.5247 17.7953 14.698C19.8206 13.83 21.8459 13.148 23.8713 12.652C25.9379 12.1147 27.8599 11.8047 29.6373 11.722C30.3399 11.6807 30.9393 11.66 31.4353 11.66C31.9726 11.6187 32.3859 11.598 32.6753 11.598C41.4793 11.598 45.8813 14.3467 45.8813 19.844C45.8813 20.2987 45.8399 20.836 45.7573 21.456C45.6746 22.0347 45.5506 22.6753 45.3853 23.378C44.0626 28.462 41.1279 33.2153 36.5813 37.638C34.2666 39.87 31.7659 41.8953 29.0793 43.714C26.4339 45.5327 23.7266 47.0827 20.9573 48.364C18.2293 49.6453 15.5633 50.6373 12.9593 51.34C10.3966 52.0427 8.01992 52.394 5.82926 52.394ZM12.8353 48.674C11.7606 48.4673 10.9959 48.0953 10.5413 47.558C10.1279 47.0207 9.92126 46.2353 9.92126 45.202C9.92126 44.9953 9.94192 44.6853 9.98326 44.272C10.0246 43.8587 10.0866 43.3213 10.1693 42.66C10.3759 41.2133 10.9133 39.5187 11.7813 37.576C12.6906 35.6333 13.8066 33.5873 15.1293 31.438C16.4519 29.2887 17.8573 27.1807 19.3453 25.114C20.8746 23.006 22.3833 21.1253 23.8713 19.472C23.9126 19.4307 23.9126 19.3687 23.8713 19.286C23.8713 19.2033 23.8093 19.1413 23.6853 19.1L23.5613 18.976C23.4373 18.8107 23.4166 18.6867 23.4993 18.604L24.9873 16.868C25.3179 16.4547 25.5866 16.124 25.7933 15.876C26.0413 15.5867 26.2273 15.4007 26.3513 15.318C26.5579 15.1113 26.8886 15.008 27.3433 15.008C27.8806 15.008 28.3766 15.1527 28.8313 15.442C29.3273 15.7313 29.5753 16.0207 29.5753 16.31C29.5753 16.5167 29.4926 16.682 29.3273 16.806C28.4593 17.5913 27.4879 18.5833 26.4133 19.782C25.3386 20.9393 24.1606 22.3447 22.8793 23.998C21.1433 26.1887 19.5313 28.4 18.0433 30.632C16.5553 32.864 15.3153 34.9307 14.3233 36.832C13.3726 38.692 12.8146 40.2007 12.6493 41.358L12.4013 42.97C12.2773 43.59 12.2153 44.1687 12.2153 44.706C12.2153 45.574 12.6286 46.1113 13.4553 46.318C13.8686 46.3593 14.0753 46.6487 14.0753 47.186C14.0753 47.5993 13.9513 47.9713 13.7033 48.302C13.4553 48.6327 13.1659 48.7567 12.8353 48.674ZM41.0748 47.682C40.2068 47.682 39.4421 47.4547 38.7808 47C37.7061 46.1733 37.1688 44.9333 37.1688 43.28C37.1688 41.6267 37.7475 39.87 38.9048 38.01C40.0621 36.15 41.8188 34.4347 44.1748 32.864C44.5881 32.5747 45.1461 32.43 45.8488 32.43C46.7581 32.43 47.5641 32.678 48.2668 33.174C49.0108 33.67 49.3001 34.3107 49.1348 35.096C48.8455 36.3773 48.2048 37.514 47.2128 38.506C46.2621 39.498 45.1255 40.3867 43.8028 41.172C42.5215 41.916 41.1988 42.6393 39.8348 43.342C39.7935 43.466 39.7521 43.59 39.7108 43.714C39.7108 43.838 39.7108 43.962 39.7108 44.086C39.7108 44.6647 39.8968 45.1813 40.2688 45.636C40.6821 46.0493 41.2401 46.256 41.9428 46.256C42.4801 46.256 42.9348 46.1733 43.3068 46.008C43.9681 45.76 44.5055 45.5327 44.9188 45.326C45.3735 45.1193 45.8901 44.8093 46.4688 44.396C47.0475 43.9827 47.8328 43.3627 48.8248 42.536C49.2795 42.2053 49.5481 42.04 49.6308 42.04C49.8788 42.04 49.9615 42.226 49.8788 42.598C49.4655 43.2593 48.7421 43.9827 47.7088 44.768C46.7168 45.5533 45.6008 46.2353 44.3608 46.814C43.1621 47.3927 42.0668 47.682 41.0748 47.682ZM40.2068 41.668C40.5375 41.668 41.2195 41.3373 42.2528 40.676C43.2861 40.0147 44.2575 39.2913 45.1668 38.506C46.7375 37.0593 47.5228 35.9433 47.5228 35.158C47.5228 34.9513 47.4608 34.7653 47.3368 34.6C47.2128 34.3933 47.0268 34.29 46.7788 34.29C45.9935 34.29 44.6708 35.22 42.8108 37.08C41.5295 38.32 40.6615 39.8493 40.2068 41.668ZM50.1418 47.992C49.3978 47.992 49.0258 47.7027 49.0258 47.124C49.0258 46.752 49.1498 46.2767 49.3978 45.698C49.6872 45.1193 49.9765 44.5613 50.2658 44.024C51.0512 42.6187 51.7745 41.2547 52.4358 39.932C53.0972 38.6093 53.7378 37.204 54.3578 35.716C54.6472 35.0547 55.0812 34.724 55.6598 34.724C56.2798 34.724 56.4658 35.096 56.2178 35.84C55.9698 36.46 55.7218 37.018 55.4738 37.514C54.3165 39.87 53.7378 41.4613 53.7378 42.288C53.7378 42.66 53.8618 42.8873 54.1098 42.97C54.6885 42.5153 55.1225 42.1847 55.4118 41.978C55.7012 41.73 55.8665 41.5853 55.9078 41.544C56.4865 41.0893 57.1272 40.5727 57.8298 39.994C58.5738 39.374 59.3798 38.6713 60.2478 37.886C61.6118 36.646 62.7485 36.026 63.6578 36.026C64.7738 36.026 65.2492 37.0387 65.0838 39.064C65.0425 39.8493 65.0425 40.614 65.0838 41.358C65.1252 41.5233 65.1458 41.7713 65.1458 42.102C65.1458 42.3913 65.1458 42.7427 65.1458 43.156C65.1458 43.5693 65.3938 43.776 65.8898 43.776C66.4685 43.776 67.0058 43.6107 67.5018 43.28L68.8658 42.35L70.2298 41.482C70.3125 41.4407 70.4572 41.42 70.6638 41.42C70.9118 41.42 70.9118 41.606 70.6638 41.978C68.0598 45.202 65.9105 46.814 64.2158 46.814C63.8852 46.814 63.5545 46.752 63.2238 46.628C62.9345 46.504 62.7278 46.1527 62.6038 45.574C62.4798 44.954 62.3972 44.2927 62.3558 43.59C62.3558 42.8873 62.3558 42.35 62.3558 41.978L62.4178 39.932C62.4178 39.064 62.1905 38.63 61.7358 38.63C60.6612 38.63 58.0158 40.8413 53.7998 45.264C53.4692 45.6773 52.9525 46.2353 52.2498 46.938C51.5472 47.6407 50.8445 47.992 50.1418 47.992ZM77.167 33.422C76.6297 33.422 76.361 33.298 76.361 33.05C76.361 32.8433 76.5057 32.554 76.795 32.182C77.1257 31.7687 77.4977 31.4173 77.911 31.128C78.8204 30.5493 79.523 30.0533 80.019 29.64C80.5564 29.2267 81.197 28.524 81.941 27.532C81.9824 27.6147 82.003 27.78 82.003 28.028C82.003 28.5653 81.7757 29.2267 81.321 30.012C80.9077 30.756 80.4324 31.438 79.895 32.058C79.3577 32.678 78.8824 33.0707 78.469 33.236C78.097 33.36 77.663 33.422 77.167 33.422ZM71.649 48.612C71.3184 48.612 71.0084 48.488 70.719 48.24C70.4297 47.992 70.285 47.6613 70.285 47.248C70.285 46.38 70.8844 44.7887 72.083 42.474L72.765 41.11C72.8477 41.0273 72.951 40.8207 73.075 40.49C73.2404 40.1593 73.4677 39.7253 73.757 39.188C74.0464 38.6093 74.2737 38.0927 74.439 37.638C74.6044 37.1833 74.7284 36.7493 74.811 36.336C74.811 36.2947 74.8937 36.212 75.059 36.088C75.2244 35.964 75.3897 35.8607 75.555 35.778L75.927 35.716C76.2577 35.716 76.5264 35.778 76.733 35.902C76.981 36.026 77.0637 36.1913 76.981 36.398C76.6917 37.018 76.4437 37.5553 76.237 38.01C76.0304 38.4647 75.865 38.8573 75.741 39.188H75.679C75.2244 40.2213 74.8317 41.2133 74.501 42.164C74.2117 43.0733 74.0877 43.9413 74.129 44.768L74.191 46.442C74.1497 46.8553 74.005 47.2067 73.757 47.496C73.5917 47.62 73.3644 47.7647 73.075 47.93C72.7857 48.1367 72.4137 48.3433 71.959 48.55C71.9177 48.5913 71.8144 48.612 71.649 48.612ZM81.0963 47.682C80.2283 47.682 79.4636 47.4547 78.8023 47C77.7276 46.1733 77.1903 44.9333 77.1903 43.28C77.1903 41.6267 77.769 39.87 78.9263 38.01C80.0836 36.15 81.8403 34.4347 84.1963 32.864C84.6096 32.5747 85.1676 32.43 85.8703 32.43C86.7796 32.43 87.5856 32.678 88.2883 33.174C89.0323 33.67 89.3216 34.3107 89.1563 35.096C88.867 36.3773 88.2263 37.514 87.2343 38.506C86.2836 39.498 85.147 40.3867 83.8243 41.172C82.543 41.916 81.2203 42.6393 79.8563 43.342C79.815 43.466 79.7736 43.59 79.7323 43.714C79.7323 43.838 79.7323 43.962 79.7323 44.086C79.7323 44.6647 79.9183 45.1813 80.2903 45.636C80.7036 46.0493 81.2616 46.256 81.9643 46.256C82.5016 46.256 82.9563 46.1733 83.3283 46.008C83.9896 45.76 84.527 45.5327 84.9403 45.326C85.395 45.1193 85.9116 44.8093 86.4903 44.396C87.069 43.9827 87.8543 43.3627 88.8463 42.536C89.301 42.2053 89.5696 42.04 89.6523 42.04C89.9003 42.04 89.983 42.226 89.9003 42.598C89.487 43.2593 88.7636 43.9827 87.7303 44.768C86.7383 45.5533 85.6223 46.2353 84.3823 46.814C83.1836 47.3927 82.0883 47.682 81.0963 47.682ZM80.2283 41.668C80.559 41.668 81.241 41.3373 82.2743 40.676C83.3076 40.0147 84.279 39.2913 85.1883 38.506C86.759 37.0593 87.5443 35.9433 87.5443 35.158C87.5443 34.9513 87.4823 34.7653 87.3583 34.6C87.2343 34.3933 87.0483 34.29 86.8003 34.29C86.015 34.29 84.6923 35.22 82.8323 37.08C81.551 38.32 80.683 39.8493 80.2283 41.668ZM90.0393 51.092C89.5846 51.092 89.192 50.9473 88.8613 50.658C88.572 50.3687 88.448 50.0173 88.4893 49.604C88.572 47.9093 88.882 46.2767 89.4193 44.706C89.998 43.1353 90.8246 41.2547 91.8993 39.064C92.0233 38.7747 92.1266 38.5267 92.2093 38.32C92.3333 38.072 92.4366 37.8653 92.5193 37.7C93.4286 35.7573 94.3586 33.8973 95.3093 32.12C96.26 30.3427 97.2106 28.6067 98.1613 26.912L99.0293 25.362C100.021 23.5847 100.889 22.1587 101.633 21.084C102.377 19.968 103.121 19.162 103.865 18.666C104.816 18.0873 105.395 17.798 105.601 17.798C105.932 17.798 106.263 18.0873 106.593 18.666C106.8 19.0793 106.387 20.092 105.353 21.704C104.816 22.5307 104.134 23.564 103.307 24.804C102.522 26.044 101.571 27.4493 100.455 29.02C100.249 29.3093 99.8973 29.826 99.4013 30.57C98.9466 31.2727 98.3266 32.2027 97.5413 33.36C96.756 34.5173 96.074 35.5713 95.4953 36.522C94.9166 37.4313 94.4413 38.2373 94.0693 38.94C93.3253 40.304 92.6226 41.7713 91.9613 43.342C91.3 44.8713 90.9693 46.07 90.9693 46.938C90.9693 47.7233 91.2793 48.116 91.8993 48.116C92.8913 48.116 94.4826 47.2687 96.6733 45.574C96.9213 45.6153 97.0453 45.7393 97.0453 45.946C97.0453 46.1113 96.8386 46.4007 96.4253 46.814C96.0533 47.186 95.578 47.5787 94.9993 47.992C94.462 48.4467 93.8213 48.9633 93.0773 49.542L92.0853 50.286C91.424 50.8233 90.742 51.092 90.0393 51.092ZM106.29 55.37C106 55.37 105.732 55.308 105.484 55.184C104.905 54.812 104.616 54.2953 104.616 53.634C104.616 53.3447 104.678 53.076 104.802 52.828C105.05 52.332 105.608 51.712 106.476 50.968C107.344 50.224 108.274 49.5627 109.266 48.984C109.679 48.4467 110.01 47.9507 110.258 47.496C110.506 47.0413 110.692 46.6487 110.816 46.318C111.766 44.582 112.738 42.97 113.73 41.482C114.722 39.994 115.714 38.6093 116.706 37.328C115.714 36.6253 115.218 35.6333 115.218 34.352C115.218 33.2773 115.486 32.182 116.024 31.066C116.354 30.3633 116.644 29.9293 116.892 29.764C117.181 29.5987 117.367 29.5573 117.45 29.64C117.532 29.64 117.574 29.8053 117.574 30.136C117.574 30.4253 117.47 30.818 117.264 31.314C117.098 31.6033 117.016 31.996 117.016 32.492C117.016 33.5253 117.491 34.3933 118.442 35.096C119.103 34.3107 119.702 33.5253 120.24 32.74C121.893 30.5907 123.464 28.6067 124.952 26.788C126.44 24.928 127.886 23.2127 129.292 21.642C131.11 19.5753 133.094 17.612 135.244 15.752C137.393 13.892 139.584 12.3833 141.816 11.226C144.048 10.0687 146.197 9.49 148.264 9.49C149.752 9.49 150.93 9.77933 151.798 10.358C152.707 10.9367 153.162 11.784 153.162 12.9C153.162 13.8093 152.81 14.9047 152.108 16.186C151.364 17.4673 150.351 18.8727 149.07 20.402C147.83 21.9313 146.3 23.5847 144.482 25.362C142.084 27.7593 139.522 29.9707 136.794 31.996C134.107 33.98 131.441 35.592 128.796 36.832C126.192 38.0307 123.794 38.63 121.604 38.63C120.281 38.63 119.186 38.4233 118.318 38.01C117.284 39.3327 116.313 40.676 115.404 42.04C114.494 43.3627 113.647 44.6853 112.862 46.008C112.82 46.2973 112.531 46.876 111.994 47.744C113.978 46.6693 116.375 45.7807 119.186 45.078C121.996 44.3753 124.931 43.838 127.99 43.466C131.09 43.094 133.983 42.9287 136.67 42.97C138.364 42.97 139.646 43.3833 140.514 44.21C141.423 44.9953 141.878 45.9253 141.878 47C141.878 47.124 141.857 47.2687 141.816 47.434C141.816 47.5993 141.795 47.7853 141.754 47.992C141.712 48.6533 141.547 49.232 141.258 49.728C141.01 50.2653 140.72 50.534 140.39 50.534C139.935 50.534 139.646 49.914 139.522 48.674C139.232 47.5993 138.84 46.7933 138.344 46.256C137.848 45.7187 136.897 45.45 135.492 45.45C125.654 45.5327 117.367 47.3927 110.63 51.03C110.299 51.6913 109.968 52.27 109.638 52.766C109.307 53.262 108.997 53.6753 108.708 54.006C107.922 54.9153 107.116 55.37 106.29 55.37ZM122.72 36.212C125.861 36.212 129.292 35.096 133.012 32.864C135.492 31.376 137.848 29.6607 140.08 27.718C142.353 25.734 144.378 23.688 146.156 21.58C147.974 19.472 149.4 17.5087 150.434 15.69C151.095 14.5327 151.426 13.6027 151.426 12.9C151.426 11.9907 150.826 11.536 149.628 11.536C149.214 11.536 148.718 11.598 148.14 11.722C145.494 12.2593 142.353 13.9747 138.716 16.868C136.318 18.7693 133.962 20.836 131.648 23.068C129.374 25.2587 127.225 27.47 125.2 29.702C123.216 31.8927 121.459 33.9387 119.93 35.84C120.88 36.088 121.81 36.212 122.72 36.212ZM151.7 33.422C151.163 33.422 150.894 33.298 150.894 33.05C150.894 32.8433 151.039 32.554 151.328 32.182C151.659 31.7687 152.031 31.4173 152.444 31.128C153.354 30.5493 154.056 30.0533 154.552 29.64C155.09 29.2267 155.73 28.524 156.474 27.532C156.516 27.6147 156.536 27.78 156.536 28.028C156.536 28.5653 156.309 29.2267 155.854 30.012C155.441 30.756 154.966 31.438 154.428 32.058C153.891 32.678 153.416 33.0707 153.002 33.236C152.63 33.36 152.196 33.422 151.7 33.422ZM146.182 48.612C145.852 48.612 145.542 48.488 145.252 48.24C144.963 47.992 144.818 47.6613 144.818 47.248C144.818 46.38 145.418 44.7887 146.616 42.474L147.298 41.11C147.381 41.0273 147.484 40.8207 147.608 40.49C147.774 40.1593 148.001 39.7253 148.29 39.188C148.58 38.6093 148.807 38.0927 148.972 37.638C149.138 37.1833 149.262 36.7493 149.344 36.336C149.344 36.2947 149.427 36.212 149.592 36.088C149.758 35.964 149.923 35.8607 150.088 35.778L150.46 35.716C150.791 35.716 151.06 35.778 151.266 35.902C151.514 36.026 151.597 36.1913 151.514 36.398C151.225 37.018 150.977 37.5553 150.77 38.01C150.564 38.4647 150.398 38.8573 150.274 39.188H150.212C149.758 40.2213 149.365 41.2133 149.034 42.164C148.745 43.0733 148.621 43.9413 148.662 44.768L148.724 46.442C148.683 46.8553 148.538 47.2067 148.29 47.496C148.125 47.62 147.898 47.7647 147.608 47.93C147.319 48.1367 146.947 48.3433 146.492 48.55C146.451 48.5913 146.348 48.612 146.182 48.612ZM161.891 48.674C161.809 48.674 161.726 48.6533 161.643 48.612C161.561 48.612 161.478 48.5913 161.395 48.55C160.817 48.2607 160.445 47.8473 160.279 47.31C160.114 46.7727 160.073 46.0907 160.155 45.264C160.238 44.9333 160.321 44.3547 160.403 43.528C160.527 42.7013 160.672 42.04 160.837 41.544L157.675 44.582L155.939 46.256C154.741 47.4547 153.749 48.054 152.963 48.054C152.633 48.054 152.364 47.93 152.157 47.682C151.785 47.2273 151.599 46.6693 151.599 46.008C151.599 45.14 151.827 44.21 152.281 43.218C152.736 42.226 153.273 41.2753 153.893 40.366C154.513 39.4153 155.071 38.63 155.567 38.01C156.807 36.4807 158.006 35.282 159.163 34.414C160.362 33.546 161.602 33.112 162.883 33.112C163.586 33.112 164.268 33.236 164.929 33.484C165.632 33.732 166.273 34.1453 166.851 34.724L166.913 34.786C166.913 34.91 166.81 35.034 166.603 35.158C166.521 35.2407 166.438 35.3027 166.355 35.344C166.314 35.3853 166.273 35.4267 166.231 35.468C165.735 35.964 165.177 36.7907 164.557 37.948C163.937 39.1053 163.4 40.3247 162.945 41.606C162.491 42.846 162.263 43.9207 162.263 44.83C162.263 45.6567 162.47 46.2147 162.883 46.504C163.09 46.628 163.317 46.69 163.565 46.69C164.103 46.69 164.847 46.3593 165.797 45.698C165.839 45.6567 165.921 45.5947 166.045 45.512C166.211 45.388 166.438 45.2227 166.727 45.016C167.058 44.768 167.327 44.644 167.533 44.644C167.74 44.644 167.843 44.7267 167.843 44.892C167.843 45.14 167.678 45.4293 167.347 45.76C167.099 45.9667 166.81 46.194 166.479 46.442C166.19 46.69 165.839 46.938 165.425 47.186C164.805 47.6407 164.165 47.992 163.503 48.24C162.842 48.5293 162.305 48.674 161.891 48.674ZM154.885 44.706C155.753 44.706 157.365 43.4247 159.721 40.862C160.341 40.1593 160.899 39.498 161.395 38.878C161.891 38.2167 162.346 37.576 162.759 36.956C163.503 35.7573 163.751 34.9307 163.503 34.476C163.379 34.228 163.131 34.104 162.759 34.104C162.305 34.104 161.685 34.352 160.899 34.848C160.114 35.3027 159.308 35.902 158.481 36.646C157.696 37.39 156.973 38.134 156.311 38.878C155.857 39.4567 155.402 40.2627 154.947 41.296C154.493 42.3293 154.265 43.1767 154.265 43.838C154.265 44.4167 154.472 44.706 154.885 44.706ZM169.393 49.046C169.104 49.046 168.959 48.798 168.959 48.302C168.959 47.8887 169.042 47.3927 169.207 46.814C169.414 46.2353 169.641 45.698 169.889 45.202C170.261 44.4993 170.819 43.2593 171.563 41.482C172.431 39.5393 173.154 37.9893 173.733 36.832C174.312 35.6333 174.87 34.724 175.407 34.104C175.986 33.4013 176.44 33.05 176.771 33.05C176.978 33.05 177.143 33.1947 177.267 33.484C177.391 33.732 177.453 34.0213 177.453 34.352C177.453 34.6827 177.412 34.8893 177.329 34.972C176.998 35.3027 176.564 35.8607 176.027 36.646C175.49 37.4313 174.994 38.2167 174.539 39.002C173.671 40.614 173.237 41.8127 173.237 42.598C173.237 42.6807 173.237 42.7633 173.237 42.846C173.278 42.9287 173.32 43.0113 173.361 43.094C173.857 42.846 174.312 42.598 174.725 42.35C175.138 42.102 175.614 41.7507 176.151 41.296L179.933 37.824C180.346 37.452 180.718 37.142 181.049 36.894C181.38 36.646 181.648 36.4393 181.855 36.274C182.268 35.9847 182.661 35.84 183.033 35.84C183.364 35.84 183.756 36.0467 184.211 36.46C184.418 36.6667 184.521 37.2247 184.521 38.134V39.684C184.521 39.8493 184.5 40.0147 184.459 40.18C184.459 40.304 184.459 40.4487 184.459 40.614C184.459 41.1513 184.521 41.6267 184.645 42.04C184.81 42.412 185.038 42.598 185.327 42.598C185.451 42.598 185.616 42.4947 185.823 42.288L187.559 40.242C189.006 38.5473 190.122 37.3073 190.907 36.522C191.692 35.7367 192.581 35.1993 193.573 34.91C193.697 34.8687 193.8 34.848 193.883 34.848C194.007 34.8067 194.11 34.786 194.193 34.786C194.565 34.786 194.875 34.91 195.123 35.158C195.412 35.406 195.495 35.7367 195.371 36.15C195.206 36.8113 194.978 37.576 194.689 38.444C194.441 39.2707 194.214 39.932 194.007 40.428C193.511 41.42 193.263 42.2053 193.263 42.784C193.263 43.156 193.408 43.404 193.697 43.528C194.028 43.652 194.338 43.7347 194.627 43.776C194.958 43.8173 195.123 43.9 195.123 44.024C195.95 43.7347 196.57 43.59 196.983 43.59C197.396 43.59 197.5 43.7347 197.293 44.024C197.086 44.272 196.714 44.582 196.177 44.954C195.64 45.326 195.04 45.6567 194.379 45.946C193.759 46.194 193.201 46.318 192.705 46.318C191.672 46.318 191.155 45.76 191.155 44.644C191.155 44.0653 191.238 43.528 191.403 43.032C191.982 40.924 192.271 39.56 192.271 38.94C192.271 38.32 192.106 38.01 191.775 38.01C191.031 38.01 189.44 39.498 187.001 42.474C186.753 42.7633 186.464 43.0733 186.133 43.404C185.844 43.7347 185.513 44.0653 185.141 44.396C184.645 44.8507 184.17 45.326 183.715 45.822C183.467 46.07 183.136 46.194 182.723 46.194C181.855 46.194 181.38 45.884 181.297 45.264C181.256 44.6027 181.214 44.0653 181.173 43.652C181.173 43.1973 181.173 42.8873 181.173 42.722C181.09 41.6473 181.028 40.924 180.987 40.552C180.946 40.18 180.76 39.994 180.429 39.994C180.016 39.994 178.982 40.6553 177.329 41.978C175.097 43.7553 173.051 45.7393 171.191 47.93C170.406 48.674 169.806 49.046 169.393 49.046Z" fill="#FB4E4E"/>
</svg>
