<svg width="18" height="18" viewBox="0 0 18 18" fill="none" xmlns="http://www.w3.org/2000/svg">
<path d="M15.7853 0.932617H14.1719V2.54601C14.1719 2.86869 13.903 3.0838 13.6341 3.0838C13.3652 3.0838 13.0963 2.86869 13.0963 2.54601V0.932617H4.49155V2.54601C4.49155 2.86869 4.22265 3.0838 3.95375 3.0838C3.68486 3.0838 3.41596 2.86869 3.41596 2.54601V0.932617H1.80257C0.995873 0.932617 0.404297 1.63175 0.404297 2.54601V4.48207H17.6138V2.54601C17.6138 1.63175 16.6458 0.932617 15.7853 0.932617ZM0.404297 5.61145V15.4531C0.404297 16.4212 0.995873 17.0665 1.85635 17.0665H15.8391C16.6995 17.0665 17.6676 16.3674 17.6676 15.4531V5.61145H0.404297ZM5.19069 14.6464H3.89997C3.68486 14.6464 3.46974 14.4851 3.46974 14.2162V12.8717C3.46974 12.6566 3.63108 12.4415 3.89997 12.4415H5.24447C5.45958 12.4415 5.6747 12.6028 5.6747 12.8717V14.2162C5.62092 14.4851 5.45958 14.6464 5.19069 14.6464ZM5.19069 9.80626H3.89997C3.68486 9.80626 3.46974 9.64492 3.46974 9.37602V8.03153C3.46974 7.81641 3.63108 7.60129 3.89997 7.60129H5.24447C5.45958 7.60129 5.6747 7.76263 5.6747 8.03153V9.37602C5.62092 9.64492 5.45958 9.80626 5.19069 9.80626ZM9.49306 14.6464H8.14857C7.93345 14.6464 7.71833 14.4851 7.71833 14.2162V12.8717C7.71833 12.6566 7.87967 12.4415 8.14857 12.4415H9.49306C9.70818 12.4415 9.9233 12.6028 9.9233 12.8717V14.2162C9.9233 14.4851 9.76196 14.6464 9.49306 14.6464ZM9.49306 9.80626H8.14857C7.93345 9.80626 7.71833 9.64492 7.71833 9.37602V8.03153C7.71833 7.81641 7.87967 7.60129 8.14857 7.60129H9.49306C9.70818 7.60129 9.9233 7.76263 9.9233 8.03153V9.37602C9.9233 9.64492 9.76196 9.80626 9.49306 9.80626ZM13.7954 14.6464H12.4509C12.2358 14.6464 12.0207 14.4851 12.0207 14.2162V12.8717C12.0207 12.6566 12.182 12.4415 12.4509 12.4415H13.7954C14.0105 12.4415 14.2257 12.6028 14.2257 12.8717V14.2162C14.2257 14.4851 14.0643 14.6464 13.7954 14.6464ZM13.7954 9.80626H12.4509C12.2358 9.80626 12.0207 9.64492 12.0207 9.37602V8.03153C12.0207 7.81641 12.182 7.60129 12.4509 7.60129H13.7954C14.0105 7.60129 14.2257 7.76263 14.2257 8.03153V9.37602C14.2257 9.64492 14.0643 9.80626 13.7954 9.80626Z" fill="#FB4E4E"/>
</svg>
