<svg width="36" height="36" viewBox="0 0 36 36" fill="none" xmlns="http://www.w3.org/2000/svg">
<path d="M33.375 36H2.625C1.1775 36 0 34.8225 0 33.375V14.625C0 13.1775 1.1775 12 2.625 12H33.375C34.8225 12 36 13.1775 36 14.625V33.375C36 34.8225 34.8225 36 33.375 36ZM2.625 14.25C2.418 14.25 2.25 14.418 2.25 14.625V33.375C2.25 33.582 2.418 33.75 2.625 33.75H33.375C33.582 33.75 33.75 33.582 33.75 33.375V14.625C33.75 14.418 33.582 14.25 33.375 14.25H2.625Z" fill="#FB4E4E"/>
<path d="M33.375 9H14.625C13.1775 9 12 7.8225 12 6.375V2.625C12 1.1775 13.1775 0 14.625 0H33.375C34.8225 0 36 1.1775 36 2.625V6.375C36 7.8225 34.8225 9 33.375 9ZM14.625 2.25C14.418 2.25 14.25 2.418 14.25 2.625V6.375C14.25 6.582 14.418 6.75 14.625 6.75H33.375C33.582 6.75 33.75 6.582 33.75 6.375V2.625C33.75 2.418 33.582 2.25 33.375 2.25H14.625Z" fill="#FB4E4E"/>
<path d="M4.5 9C2.019 9 0 6.981 0 4.5C0 2.019 2.019 0 4.5 0C6.981 0 9 2.019 9 4.5C9 6.981 6.981 9 4.5 9ZM4.5 2.25C3.2595 2.25 2.25 3.2595 2.25 4.5C2.25 5.7405 3.2595 6.75 4.5 6.75C5.7405 6.75 6.75 5.7405 6.75 4.5C6.75 3.2595 5.7405 2.25 4.5 2.25Z" fill="#FB4E4E"/>
</svg>
