<svg width="24" height="24" viewBox="0 0 24 24" fill="none" xmlns="http://www.w3.org/2000/svg">
<path d="M22 9.0005V15.0005C22 17.5005 21.5 19.2505 20.38 20.3805L14 14.0005L21.73 6.27051C21.91 7.06051 22 7.9605 22 9.0005Z" stroke="white" stroke-width="2" stroke-linecap="round" stroke-linejoin="round"/>
<path d="M21.73 6.27L6.26999 21.73C3.25999 21.04 2 18.96 2 15V9C2 4 4 2 9 2H15C18.96 2 21.04 3.26 21.73 6.27Z" stroke="white" stroke-width="2" stroke-linecap="round" stroke-linejoin="round"/>
<path d="M20.3795 20.38C19.2495 21.5 17.4995 22 14.9995 22H8.99954C7.95954 22 7.05953 21.91 6.26953 21.73L13.9995 14L20.3795 20.38Z" stroke="white" stroke-width="2" stroke-linecap="round" stroke-linejoin="round"/>
<path d="M6.24124 7.97973C6.92124 5.04973 11.3212 5.04973 12.0012 7.97973C12.3912 9.69973 11.3112 11.1597 10.3612 12.0597C9.67123 12.7197 8.58125 12.7197 7.88125 12.0597C6.93125 11.1597 5.84124 9.69973 6.24124 7.97973Z" stroke="white" stroke-width="2"/>
<path d="M9.09412 8.7002H9.1031" stroke="white" stroke-width="2" stroke-linecap="round" stroke-linejoin="round"/>
</svg>
