<svg width="18" height="22" viewBox="0 0 18 22" fill="none" xmlns="http://www.w3.org/2000/svg">
<path d="M12.9462 1.68658L12.0338 5.25511H5.9375L5.31574 3.78176C5.16709 3.34241 5.49144 2.88963 5.95778 2.88963H8.2827C8.38408 2.88963 8.47868 2.86935 8.56656 2.83552V3.38974C8.56656 3.73443 8.79638 4.01151 9.07346 4.01151C9.35053 4.01151 9.58035 3.73443 9.58035 3.38974V0.889053C9.63446 0.868777 9.68851 0.862061 9.74933 0.862061H12.2838C12.7164 0.862061 13.0408 1.26079 12.9462 1.68658Z" fill="#FB4E4E"/>
<path d="M12.5899 6.26843H5.7469C5.39696 6.26843 5.11328 6.55211 5.11328 6.90205V7.66239C5.11328 8.01232 5.39696 8.296 5.7469 8.296H12.5899C12.9399 8.296 13.2236 8.01232 13.2236 7.66239V6.90205C13.2236 6.55211 12.9399 6.26843 12.5899 6.26843Z" fill="#FB4E4E"/>
<path d="M17.3391 14.7175C16.8592 12.0951 14.71 10.1757 13.2569 9.15515C13.0406 9.25653 12.7973 9.31064 12.5473 9.31064H5.78867C5.53858 9.31064 5.29534 9.25653 5.07902 9.15515C3.62589 10.1757 1.47666 12.0951 0.996827 14.7175C0.192579 19.1308 2.36886 21.1381 9.16793 21.1381C16.0414 21.1381 18.1434 19.1308 17.3391 14.7175ZM9.09367 14.5147L9.48562 14.6093C10.2223 14.7986 10.736 15.4541 10.736 16.2179V16.3869C10.736 17.0762 10.2899 17.6574 9.67488 17.8738V18.3198C9.67488 18.597 9.44507 18.8267 9.16799 18.8267C8.89091 18.8267 8.6611 18.597 8.6611 18.3198V17.8738C8.04611 17.6575 7.59998 17.0762 7.59998 16.3869C7.59998 16.103 7.82302 15.88 8.10688 15.88C8.38402 15.88 8.61377 16.103 8.61377 16.3869C8.61377 16.691 8.86386 16.9411 9.16799 16.9411C9.47213 16.9411 9.72222 16.691 9.72222 16.3869V16.2179C9.72222 15.9205 9.52624 15.6704 9.24232 15.5961L8.85036 15.5015C8.11366 15.3123 7.59998 14.6567 7.59998 13.8929V13.724C7.59998 13.0346 8.04605 12.4534 8.6611 12.2371V11.791C8.6611 11.5139 8.89091 11.2841 9.16799 11.2841C9.44507 11.2841 9.67488 11.5139 9.67488 11.791V12.2371C10.2899 12.4533 10.736 13.0346 10.736 13.724C10.736 14.0078 10.513 14.2309 10.2291 14.2309C9.95197 14.2309 9.72222 14.0078 9.72222 13.724C9.72222 13.4198 9.47213 13.1697 9.16799 13.1697C8.86386 13.1697 8.61377 13.4198 8.61377 13.724V13.8929C8.61377 14.1903 8.80975 14.4403 9.09367 14.5147Z" fill="#FB4E4E"/>
</svg>
