<svg width="40" height="40" viewBox="0 0 40 40" fill="none" xmlns="http://www.w3.org/2000/svg">
<path d="M30 2.5V5H33.2325L20 18.2325L15 13.2325L2.86621 25.3662L4.63371 27.1338L15 16.7675L20 21.7675L35 6.7675V10H37.5V2.5H30Z" fill="#FB4E4E"/>
<path d="M4.4825 28.75L2.5 30.7325V37.5H12.5V30.7325L10.5175 28.75H4.4825ZM10 35H5V31.7675L5.5175 31.25H9.4825L10 31.7675V35Z" fill="#FB4E4E"/>
<path d="M16.9825 23.75L15 25.7325V37.5H25V25.7325L23.0175 23.75H16.9825ZM22.5 35H17.5V26.7675L18.0175 26.25H21.9825L22.5 26.7675V35Z" fill="#FB4E4E"/>
<path d="M29.4825 16.25L27.5 18.2325V37.5H37.5V18.2325L35.5175 16.25H29.4825ZM35 35H30V19.2675L30.5175 18.75H34.4825L35 19.2675V35Z" fill="#FB4E4E"/>
</svg>
