<svg width="38" height="40" viewBox="0 0 38 40" fill="none" xmlns="http://www.w3.org/2000/svg">
<path d="M37.9272 8.51271C37.9272 8.00526 37.6207 7.54801 37.1513 7.35514L19.4758 0.0938574C19.171 -0.0312858 18.8294 -0.0312858 18.5247 0.0938574L0.84913 7.35514C0.379765 7.54794 0.0732422 8.00526 0.0732422 8.51271V31.4873C0.0732422 31.9947 0.379687 32.452 0.84913 32.6449L18.5247 39.9061C18.8261 40.03 19.1649 40.0326 19.4742 39.9061C19.4893 39.9011 18.8201 40.1755 37.1513 32.6449C37.6207 32.4521 37.9272 31.9947 37.9272 31.4873V8.51271ZM19.0002 14.5263L12.4875 11.8508L26.5622 5.71091L33.5106 8.56535L19.0002 14.5263ZM2.57611 10.485L8.19512 12.7933V19.3058C8.19512 19.9969 8.75544 20.5572 9.44655 20.5572C10.1377 20.5572 10.698 19.9969 10.698 19.3058V13.8215L17.7488 16.718V36.8815L2.57611 30.6484V10.485ZM19.0002 2.60431L23.3385 4.3865L9.26368 10.5264L4.48986 8.56527L19.0002 2.60431ZM20.2516 16.718L35.4243 10.485V30.6484L20.2516 36.8815V16.718Z" fill="#FB4E4E"/>
</svg>
