<svg width="21" height="20" viewBox="0 0 21 20" fill="none" xmlns="http://www.w3.org/2000/svg">
<path d="M4.34201 4.5C4.34201 3.70888 4.5766 2.93552 5.01613 2.27772C5.45566 1.61992 6.08037 1.10723 6.81127 0.804484C7.54218 0.501733 8.34644 0.42252 9.12237 0.576861C9.89829 0.731202 10.611 1.11216 11.1704 1.67157C11.7298 2.23098 12.1108 2.94372 12.2651 3.71964C12.4195 4.49556 12.3403 5.29983 12.0375 6.03074C11.7348 6.76164 11.2221 7.38635 10.5643 7.82588C9.90649 8.26541 9.13313 8.5 8.34201 8.5C7.28114 8.5 6.26373 8.07857 5.51358 7.32843C4.76344 6.57828 4.34201 5.56087 4.34201 4.5ZM11.433 16.82C11.1681 16.5729 10.9793 16.2553 10.889 15.9045C10.7986 15.5536 10.8104 15.1843 10.923 14.84C11.0325 14.4909 11.2393 14.1803 11.5192 13.9448C11.7991 13.7092 12.1404 13.5583 12.503 13.51L13.753 13.33C13.753 13.33 13.953 13.311 14.013 13.19L14.413 12.39C14.445 12.3321 14.459 12.2659 14.453 12.2C14.4405 12.1436 14.4129 12.0918 14.373 12.05C13.8471 11.5212 13.2153 11.1096 12.5189 10.8425C11.8226 10.5753 11.0777 10.4586 10.333 10.5H6.33301C2.27301 10.5 0.833008 13.47 0.833008 16.02C0.833008 18.3 2.04301 19.5 4.33301 19.5H11.923C12.083 19.5 12.185 19.38 12.233 19.12L12.433 17.97C12.4437 17.9211 12.441 17.8701 12.4252 17.8226C12.4093 17.7751 12.3809 17.7327 12.343 17.7L11.433 16.82ZM20.2 15.739C20.2592 15.6821 20.301 15.6096 20.3207 15.5299C20.3404 15.4502 20.3371 15.3666 20.3113 15.2887C20.2854 15.2107 20.2381 15.1417 20.1747 15.0896C20.1113 15.0374 20.0344 15.0043 19.953 14.994L17.961 14.711C17.89 14.7012 17.8225 14.6743 17.7641 14.6327C17.7058 14.591 17.6584 14.5359 17.626 14.472L16.762 12.76C16.7215 12.6815 16.6602 12.6157 16.5848 12.5697C16.5094 12.5238 16.4228 12.4995 16.3345 12.4995C16.2462 12.4995 16.1596 12.5238 16.0842 12.5697C16.0088 12.6157 15.9475 12.6815 15.907 12.76L15.044 14.472C15.0115 14.5359 14.9641 14.5909 14.9058 14.6326C14.8475 14.6742 14.78 14.7011 14.709 14.711L12.717 14.994C12.6354 15.0039 12.5582 15.0369 12.4946 15.089C12.4309 15.1411 12.3834 15.2102 12.3575 15.2882C12.3316 15.3663 12.3284 15.4501 12.3483 15.5299C12.3683 15.6098 12.4105 15.6823 12.47 15.739L13.91 17.113C13.9619 17.162 14.0008 17.2231 14.0233 17.2908C14.0458 17.3585 14.0512 17.4307 14.039 17.501L13.71 19.38C13.6961 19.4671 13.7068 19.5564 13.7408 19.6377C13.7749 19.7191 13.831 19.7893 13.9028 19.8406C13.9746 19.8918 14.0593 19.922 14.1473 19.9277C14.2353 19.9334 14.3232 19.9145 14.401 19.873L16.128 18.985C16.192 18.9519 16.263 18.9347 16.335 18.9347C16.407 18.9347 16.478 18.9519 16.542 18.985L18.27 19.874C18.3478 19.9152 18.4356 19.9339 18.5234 19.9281C18.6113 19.9222 18.6958 19.892 18.7674 19.8408C18.839 19.7896 18.895 19.7195 18.929 19.6383C18.963 19.557 18.9738 19.468 18.96 19.381L18.633 17.5C18.6209 17.4298 18.6262 17.3577 18.6485 17.29C18.6708 17.2223 18.7095 17.1612 18.761 17.112L20.2 15.739Z" fill="#FB4E4E"/>
</svg>
